<svg width="500" height="115" viewBox="0 0 500 115" fill="none" xmlns="http://www.w3.org/2000/svg">
<path d="M119 93.248C117.208 93.248 115.256 93.088 113.144 92.768C111.096 92.448 109.144 91.776 107.288 90.752C105.432 89.728 103.96 88.192 102.872 86.144C101.144 84.992 99.832 83.136 98.936 80.576C98.04 77.952 97.592 74.88 97.592 71.36C97.592 67.264 98.008 62.944 98.84 58.4C99.736 53.856 100.984 49.44 102.584 45.152C104.248 40.8 106.232 36.896 108.536 33.44C110.904 29.92 113.56 27.136 116.504 25.088C119.512 22.976 122.776 21.92 126.296 21.92C128.408 21.92 130.232 22.176 131.768 22.688C133.368 23.136 134.808 24.288 136.088 26.144C138.648 26.976 140.44 28.48 141.464 30.656C142.488 32.832 142.936 35.04 142.808 37.28C142.744 39.392 142.136 41.824 140.984 44.576C139.832 47.264 138.776 49.952 137.816 52.64C137.56 53.28 137.272 53.792 136.952 54.176C136.696 54.56 136.216 54.752 135.512 54.752C134.04 54.752 132.6 54.24 131.192 53.216C129.848 52.192 128.728 50.912 127.832 49.376C127 47.84 126.584 46.336 126.584 44.864C126.584 43.2 126.904 41.152 127.544 38.72C128.248 36.224 129.208 34.112 130.424 32.384C128.376 32.704 126.424 33.856 124.568 35.84C122.776 37.824 121.112 40.448 119.576 43.712C118.104 46.912 116.824 50.496 115.736 54.464C114.648 58.432 113.784 62.592 113.144 66.944C112.568 71.296 112.28 75.552 112.28 79.712C115.48 79.712 118.328 79.232 120.824 78.272C123.384 77.312 125.624 76.064 127.544 74.528C129.464 72.992 131.128 71.36 132.536 69.632C134.008 67.904 135.32 66.304 136.472 64.832C139.096 65.28 140.408 67.296 140.408 70.88C140.408 74.784 139.448 78.464 137.528 81.92C135.608 85.312 133.016 88.064 129.752 90.176C126.552 92.224 122.968 93.248 119 93.248ZM165.77 93.44C163.658 93.44 161.61 93.024 159.626 92.192C157.706 91.424 156.138 90.08 154.922 88.16C151.85 86.688 149.482 84.128 147.818 80.48C146.154 76.832 145.322 72.576 145.322 67.712C145.322 63.488 145.898 59.488 147.05 55.712C148.202 51.872 149.77 48.48 151.754 45.536C153.738 42.592 156.01 40.288 158.57 38.624C161.194 36.896 163.946 36.032 166.826 36.032C169.258 36.032 171.69 36.48 174.122 37.376C176.554 38.208 178.666 39.744 180.458 41.984C183.594 43.584 185.994 45.92 187.658 48.992C189.386 52.064 190.25 55.424 190.25 59.072C190.25 63.744 189.77 68.16 188.81 72.32C187.85 76.48 186.378 80.16 184.394 83.36C182.41 86.496 179.882 88.96 176.81 90.752C173.738 92.544 170.058 93.44 165.77 93.44ZM163.85 82.88C165.77 82.88 167.466 82.048 168.938 80.384C170.41 78.72 171.658 76.608 172.682 74.048C173.706 71.424 174.474 68.608 174.986 65.6C175.562 62.592 175.85 59.744 175.85 57.056C175.85 54.112 175.498 51.648 174.794 49.664C174.154 47.68 173.098 46.688 171.626 46.688C169.706 46.688 168.01 47.52 166.538 49.184C165.066 50.848 163.818 52.992 162.794 55.616C161.77 58.176 160.97 60.96 160.394 63.968C159.882 66.976 159.626 69.824 159.626 72.512C159.626 75.456 159.978 77.92 160.682 79.904C161.386 81.888 162.442 82.88 163.85 82.88ZM235.579 93.344C231.291 93.344 228.315 92.096 226.651 89.6C225.051 87.104 224.251 83.904 224.251 80C224.251 76.992 224.635 73.696 225.403 70.112C226.171 66.464 227.067 62.784 228.091 59.072H227.899C224.699 64.256 221.723 69.696 218.971 75.392C216.219 81.024 213.659 86.912 211.291 93.056C207.835 93.056 205.147 91.872 203.227 89.504C201.243 88.608 199.771 87.296 198.811 85.568C197.915 83.776 197.467 81.888 197.467 79.904C197.467 74.016 197.819 67.52 198.523 60.416C199.227 53.312 200.411 45.92 202.075 38.24C202.267 37.024 202.939 36.416 204.091 36.416C205.819 36.416 207.451 36.832 208.987 37.664C210.523 38.432 211.771 39.552 212.731 41.024C213.691 42.496 214.171 44.224 214.171 46.208C214.171 46.528 214.171 46.88 214.171 47.264C214.171 47.648 214.107 48.032 213.979 48.416L209.179 73.184H209.371C210.971 69.536 212.571 65.92 214.171 62.336C215.835 58.688 217.499 55.392 219.163 52.448C220.891 49.44 222.683 47.04 224.539 45.248C226.395 43.392 228.315 42.464 230.299 42.464C231.899 42.464 233.595 43.296 235.387 44.96C237.179 45.472 238.523 46.336 239.419 47.552C240.379 48.704 240.859 49.984 240.859 51.392C240.859 51.584 240.859 51.776 240.859 51.968C240.859 52.16 240.827 52.352 240.763 52.544C240.507 53.952 240.219 55.936 239.899 58.496C239.579 60.992 239.259 63.84 238.939 67.04C238.683 70.176 238.459 73.472 238.267 76.928C238.075 80.32 237.979 83.616 237.979 86.816C237.979 87.84 238.011 88.864 238.075 89.888C238.203 90.912 238.331 91.872 238.459 92.768C237.499 93.152 236.539 93.344 235.579 93.344ZM265.464 93.248C262.136 93.248 258.936 92.768 255.864 91.808C252.792 90.848 250.264 89.376 248.28 87.392C246.36 85.344 245.4 82.816 245.4 79.808C245.4 78.144 245.72 76.672 246.36 75.392C247.064 74.112 248.024 73.472 249.24 73.472C250.264 75.136 251.576 76.576 253.176 77.792C254.84 79.008 256.568 79.936 258.36 80.576C260.216 81.152 261.88 81.44 263.352 81.44C264.824 81.44 266.04 81.152 267 80.576C267.96 79.936 268.44 78.976 268.44 77.696C268.44 76.928 268.152 76.192 267.576 75.488C267 74.784 265.88 74.144 264.216 73.568L256.056 70.784C252.92 69.696 250.776 68.352 249.624 66.752C248.536 65.152 247.992 62.944 247.992 60.128C247.992 57.824 248.536 55.328 249.624 52.64C250.776 49.888 252.312 47.264 254.232 44.768C256.216 42.272 258.424 40.256 260.856 38.72C263.352 37.12 265.944 36.32 268.632 36.32C270.808 36.32 272.792 36.544 274.584 36.992C276.376 37.376 277.944 38.464 279.288 40.256C281.4 41.216 282.936 42.528 283.896 44.192C284.92 45.856 285.432 47.328 285.432 48.608C285.432 49.952 285.08 51.36 284.376 52.832C283.672 54.304 282.904 55.808 282.072 57.344C281.304 58.88 280.696 60.384 280.248 61.856C280.12 62.304 279.928 62.688 279.672 63.008C279.48 63.328 279.064 63.488 278.424 63.488C277.72 63.488 276.92 63.168 276.024 62.528C275.128 61.888 274.232 61.12 273.336 60.224C272.504 59.264 271.8 58.336 271.224 57.44C270.712 56.48 270.456 55.744 270.456 55.232C270.456 53.696 270.872 52.224 271.704 50.816C272.536 49.408 272.952 48.288 272.952 47.456C272.952 47.136 272.92 46.88 272.856 46.688C272.792 46.432 272.568 46.304 272.184 46.304C270.968 46.304 269.656 47.072 268.248 48.608C266.904 50.08 265.752 51.936 264.792 54.176C263.832 56.352 263.352 58.528 263.352 60.704C263.352 61.984 264.344 62.976 266.328 63.68L275.832 67.328C280.888 69.312 283.416 72.512 283.416 76.928C283.416 80.256 282.552 83.168 280.824 85.664C279.16 88.096 276.952 89.984 274.2 91.328C271.448 92.608 268.536 93.248 265.464 93.248ZM308.812 93.344C304.268 93.344 300.556 92.256 297.676 90.08C294.796 87.904 292.684 85.088 291.34 81.632C289.996 78.176 289.324 74.56 289.324 70.784C289.324 67.52 289.42 64.032 289.612 60.32C289.868 56.608 290.156 52.96 290.476 49.376C290.86 45.792 291.18 42.56 291.436 39.68C291.564 38.208 291.916 37.312 292.492 36.992C293.068 36.608 293.836 36.416 294.796 36.416C296.268 36.416 297.836 36.8 299.5 37.568C301.228 38.336 302.7 39.328 303.916 40.544C305.196 41.76 305.836 43.04 305.836 44.384C305.836 44.768 305.74 45.952 305.548 47.936C305.356 49.856 305.1 52.192 304.78 54.944C304.524 57.696 304.3 60.512 304.108 63.392C303.916 66.208 303.82 68.672 303.82 70.784C303.82 77.184 305.484 80.384 308.812 80.384C310.668 80.384 312.172 79.232 313.324 76.928C314.54 74.624 315.532 71.584 316.3 67.808C317.068 63.968 317.676 59.712 318.124 55.04C318.572 50.368 318.924 45.664 319.18 40.928C319.244 39.968 319.596 39.392 320.236 39.2C320.876 38.944 321.42 38.816 321.868 38.816C323.212 38.816 324.748 39.328 326.476 40.352C328.204 41.312 329.708 42.656 330.988 44.384C332.268 46.048 332.908 48 332.908 50.24C332.908 54.336 332.652 58.432 332.14 62.528C331.692 66.624 330.924 70.528 329.836 74.24C328.748 77.888 327.276 81.152 325.42 84.032C323.628 86.912 321.356 89.184 318.604 90.848C315.852 92.512 312.588 93.344 308.812 93.344ZM350.456 93.344C348.792 93.344 346.968 92.96 344.984 92.192C343.064 91.488 341.4 90.24 339.992 88.448C338.648 86.592 337.976 84.032 337.976 80.768C337.976 80 338.04 78.24 338.168 75.488C338.36 72.736 338.584 69.344 338.84 65.312C339.16 61.28 339.48 56.992 339.8 52.448C340.184 47.84 340.568 43.328 340.952 38.912C341.336 34.496 341.72 30.528 342.104 27.008C342.488 23.424 342.84 20.704 343.16 18.848C343.288 18.336 343.608 18.016 344.12 17.888C344.632 17.696 345.08 17.6 345.464 17.6C346.872 17.6 348.472 18.016 350.264 18.848C352.12 19.68 353.688 20.96 354.968 22.688C356.312 24.416 356.856 26.624 356.6 29.312C356.472 30.72 356.28 32.928 356.024 35.936C355.768 38.944 355.448 42.432 355.064 46.4C354.744 50.368 354.424 54.56 354.104 58.976C353.784 63.328 353.464 67.616 353.144 71.84C352.888 76.064 352.664 79.936 352.472 83.456C352.28 86.912 352.184 89.696 352.184 91.808C352.184 92.128 352.024 92.448 351.704 92.768C351.448 93.152 351.032 93.344 350.456 93.344ZM378.68 93.44C377.272 93.44 375.576 92.992 373.592 92.096C371.672 91.264 370.232 89.76 369.272 87.584C367.608 86.56 366.36 85.184 365.528 83.456C364.696 81.664 364.28 79.584 364.28 77.216C364.28 75.68 364.312 73.44 364.376 70.496C364.44 67.552 364.536 64.16 364.664 60.32C364.856 56.48 365.112 52.448 365.432 48.224C363.704 47.456 362.136 46.336 360.728 44.864C359.384 43.328 358.712 42.08 358.712 41.12C358.712 40.352 358.84 39.744 359.096 39.296C359.416 38.848 359.992 38.592 360.824 38.528C362.616 38.272 364.472 38.048 366.392 37.856C366.648 35.808 366.904 33.824 367.16 31.904C367.416 29.984 367.704 28.096 368.024 26.24C368.216 25.216 368.504 24.544 368.888 24.224C369.272 23.84 369.816 23.648 370.52 23.648C372.44 23.648 374.296 24.128 376.088 25.088C377.944 26.048 379.448 27.136 380.6 28.352C381.816 29.568 382.36 30.56 382.232 31.328C381.912 33.248 381.656 35.04 381.464 36.704C382.36 36.704 383.192 36.704 383.96 36.704C384.92 36.704 386.04 36.992 387.32 37.568C388.664 38.08 389.944 38.752 391.16 39.584C392.376 40.416 393.4 41.312 394.232 42.272C395.064 43.168 395.48 44 395.48 44.768C395.48 45.92 395.192 46.656 394.616 46.976C394.04 47.296 393.144 47.456 391.928 47.456C390.84 47.456 389.176 47.552 386.936 47.744C384.696 47.872 382.328 48.032 379.832 48.224C379.128 53.664 378.488 59.072 377.912 64.448C377.4 69.824 377.048 75.232 376.856 80.672C379.288 79.968 381.24 79.008 382.712 77.792C384.184 76.512 385.368 75.328 386.264 74.24C387.224 73.088 388.12 72.352 388.952 72.032C389.336 71.84 389.752 71.744 390.2 71.744C391.352 71.744 392.312 72.32 393.08 73.472C393.912 74.624 394.328 76.064 394.328 77.792C394.328 79.712 393.752 81.6 392.6 83.456C391.512 85.312 390.104 87.008 388.376 88.544C386.648 90.016 384.92 91.2 383.192 92.096C381.464 92.992 379.96 93.44 378.68 93.44ZM410.458 93.344C408.794 93.344 407.034 93.024 405.178 92.384C403.386 91.744 401.85 90.816 400.57 89.6C399.354 88.384 398.746 86.912 398.746 85.184C398.746 84.16 398.81 82.336 398.938 79.712C399.066 77.088 399.226 74.048 399.418 70.592C399.61 67.072 399.834 63.456 400.09 59.744C400.346 55.968 400.634 52.384 400.954 48.992C401.274 45.6 401.562 42.72 401.818 40.352C401.882 39.84 402.202 39.52 402.778 39.392C403.354 39.2 403.834 39.104 404.218 39.104C405.69 39.104 407.322 39.52 409.114 40.352C410.906 41.184 412.442 42.24 413.722 43.52C415.066 44.8 415.738 46.144 415.738 47.552C415.738 48.384 415.61 50.048 415.354 52.544C415.098 54.976 414.778 57.888 414.394 61.28C414.074 64.672 413.722 68.224 413.338 71.936C413.018 75.648 412.73 79.264 412.474 82.784C412.218 86.24 412.09 89.248 412.09 91.808C412.09 92.128 411.962 92.448 411.706 92.768C411.45 93.152 411.034 93.344 410.458 93.344ZM411.802 29.6C409.69 29.6 407.738 29.376 405.946 28.928C404.218 28.416 402.842 27.52 401.818 26.24C400.858 24.96 400.442 23.136 400.57 20.768C400.698 19.552 400.858 18.24 401.05 16.832C401.306 15.36 402.138 14.464 403.546 14.144C404.314 14.016 405.242 13.92 406.33 13.856C407.418 13.792 408.378 13.76 409.21 13.76C411.002 13.76 412.986 14.048 415.162 14.624C416.25 14.88 416.794 15.296 416.794 15.872C416.794 17.344 416.57 19.072 416.122 21.056C415.674 23.04 415.194 25.76 414.682 29.216C413.658 29.472 412.698 29.6 411.802 29.6ZM437.604 93.344C435.94 93.344 434.18 92.992 432.324 92.288C430.468 91.584 428.9 90.432 427.62 88.832C426.34 87.168 425.732 84.896 425.796 82.016C425.924 78.048 426.02 73.6 426.084 68.672C426.148 63.68 426.404 58.624 426.852 53.504C425.188 52.672 423.684 51.52 422.34 50.048C421.06 48.576 420.42 47.392 420.42 46.496C420.42 45.728 420.548 45.152 420.804 44.768C421.124 44.32 421.7 44.032 422.532 43.904C424.516 43.52 426.372 43.2 428.1 42.944C428.996 36.992 430.116 32.224 431.46 28.64C432.868 24.992 434.628 22.368 436.74 20.768C438.916 19.168 441.636 18.368 444.9 18.368C448.1 18.368 450.852 19.04 453.156 20.384C455.46 21.728 457.22 23.328 458.436 25.184C459.716 27.04 460.356 28.8 460.356 30.464C460.356 31.36 460.1 32.128 459.588 32.768C459.076 33.344 458.276 33.632 457.188 33.632C454.82 33.632 452.932 33.376 451.524 32.864C450.116 32.352 448.996 31.872 448.164 31.424C447.332 30.912 446.532 30.656 445.764 30.656C444.804 30.656 444.068 31.488 443.556 33.152C443.044 34.816 442.564 37.6 442.116 41.504C442.372 41.504 442.628 41.504 442.884 41.504C443.844 41.504 444.964 41.792 446.244 42.368C447.588 42.88 448.868 43.552 450.084 44.384C451.3 45.216 452.324 46.112 453.156 47.072C453.988 47.968 454.404 48.8 454.404 49.568C454.404 50.72 454.116 51.456 453.54 51.776C452.964 52.096 452.068 52.256 450.852 52.256C449.828 52.256 448.42 52.384 446.628 52.64C444.836 52.832 442.948 53.024 440.964 53.216C440.964 53.664 440.932 54.08 440.868 54.464C440.868 54.848 440.836 55.264 440.772 55.712C440.388 60.192 440.1 65.44 439.908 71.456C439.78 77.408 439.556 84.192 439.236 91.808C439.236 92.128 439.108 92.448 438.852 92.768C438.596 93.152 438.18 93.344 437.604 93.344ZM466.728 110.24C464.04 110.24 462.088 109.824 460.872 108.992C459.656 108.224 458.888 107.392 458.568 106.496C458.248 105.664 458.088 105.184 458.088 105.056C458.088 104.48 458.248 104.064 458.568 103.808C458.888 103.616 459.208 103.456 459.528 103.328C460.04 103.072 460.904 102.496 462.12 101.6C463.4 100.704 464.744 99.296 466.152 97.376C467.56 95.52 468.744 93.056 469.704 89.984C467.592 88.768 465.864 87.008 464.52 84.704C463.24 82.4 462.344 80.032 461.832 77.6C461.512 76 461.16 73.888 460.776 71.264C460.392 68.64 459.976 65.76 459.528 62.624C459.144 59.488 458.76 56.384 458.376 53.312C457.992 50.24 457.64 47.424 457.32 44.864C457.064 42.24 456.84 40.16 456.648 38.624C456.456 37.024 456.36 36.224 456.36 36.224C456.68 35.456 457.832 35.072 459.816 35.072C461.288 35.072 463.016 35.616 465 36.704C466.984 37.792 468.744 39.232 470.28 41.024C471.816 42.752 472.648 44.672 472.776 46.784C472.84 47.552 473 49.44 473.256 52.448C473.512 55.456 473.8 59.04 474.12 63.2C474.44 67.36 474.76 71.616 475.08 75.968H475.368L485.64 36.704C485.832 35.936 486.888 35.552 488.808 35.552C490.216 35.552 491.752 35.904 493.416 36.608C495.144 37.312 496.616 38.304 497.832 39.584C499.112 40.864 499.752 42.368 499.752 44.096C499.752 44.352 499.752 44.64 499.752 44.96C499.752 45.28 499.688 45.6 499.56 45.92C499.496 46.176 499.176 47.2 498.6 48.992C498.024 50.784 497.224 53.12 496.2 56C495.24 58.816 494.12 61.984 492.84 65.504C491.624 68.96 490.344 72.576 489 76.352C487.656 80.064 486.344 83.712 485.064 87.296C483.592 91.392 481.928 95.168 480.072 98.624C478.28 102.144 476.264 104.96 474.024 107.072C471.848 109.184 469.416 110.24 466.728 110.24Z" fill="url(#paint0_linear_2_21)"/>
<path d="M72.6253 71.1108C70.905 71.1108 69.2233 70.6006 67.7929 69.6449C66.3625 68.6891 65.2477 67.3306 64.5893 65.7413C63.931 64.1519 63.7587 62.403 64.0943 60.7157C64.43 59.0284 65.2584 57.4786 66.4748 56.2621C67.6913 55.0457 69.2411 54.2173 70.9284 53.8816C72.6157 53.546 74.3646 53.7183 75.954 54.3766C77.5433 55.035 78.9018 56.1498 79.8576 57.5802C80.8133 59.0106 81.3235 60.6923 81.3235 62.4126C81.3235 64.7195 80.4071 66.9319 78.7758 68.5631C77.1446 70.1944 74.9322 71.1108 72.6253 71.1108ZM72.6253 56.6139C71.4784 56.6139 70.3573 56.954 69.4037 57.5911C68.4501 58.2283 67.7069 59.134 67.268 60.1935C66.8291 61.2531 66.7143 62.4191 66.938 63.5439C67.1617 64.6688 67.714 65.702 68.525 66.513C69.336 67.3239 70.3692 67.8762 71.4941 68.1C72.6189 68.3237 73.7848 68.2089 74.8444 67.77C75.904 67.3311 76.8096 66.5879 77.4468 65.6343C78.084 64.6807 78.4241 63.5595 78.4241 62.4126C78.4241 60.8747 77.8131 59.3998 76.7257 58.3123C75.6382 57.2248 74.1633 56.6139 72.6253 56.6139Z" fill="url(#paint1_linear_2_21)"/>
<path d="M74.7999 63.8623H70.4508C70.0663 63.8623 69.6976 63.7096 69.4257 63.4377C69.1538 63.1658 69.0011 62.7971 69.0011 62.4126C69.0011 62.0281 69.1538 61.6594 69.4257 61.3875C69.6976 61.1157 70.0663 60.9629 70.4508 60.9629H74.7999C75.1843 60.9629 75.5531 61.1157 75.825 61.3875C76.0968 61.6594 76.2496 62.0281 76.2496 62.4126C76.2496 62.7971 76.0968 63.1658 75.825 63.4377C75.5531 63.7096 75.1843 63.8623 74.7999 63.8623Z" fill="url(#paint2_linear_2_21)"/>
<path d="M72.6253 66.0368C72.2409 66.0368 71.8721 65.8841 71.6002 65.6122C71.3284 65.3404 71.1756 64.9716 71.1756 64.5872V60.2381C71.1756 59.8536 71.3284 59.4849 71.6002 59.213C71.8721 58.9411 72.2409 58.7884 72.6253 58.7884C73.0098 58.7884 73.3785 58.9411 73.6504 59.213C73.9223 59.4849 74.075 59.8536 74.075 60.2381V64.5872C74.075 64.9716 73.9223 65.3404 73.6504 65.6122C73.3785 65.8841 73.0098 66.0368 72.6253 66.0368Z" fill="url(#paint3_linear_2_21)"/>
<path d="M51.6049 82.7083C49.1069 82.7044 46.7124 81.7104 44.946 79.9441C43.1797 78.1778 42.1857 75.7832 42.1819 73.2853V55.1642C42.1819 54.7797 42.3346 54.411 42.6065 54.1391C42.8784 53.8672 43.2471 53.7145 43.6316 53.7145H46.5309C46.9154 53.7145 47.2842 53.8672 47.556 54.1391C47.8279 54.411 47.9806 54.7797 47.9806 55.1642C47.9806 55.5487 47.8279 55.9174 47.556 56.1893C47.2842 56.4611 46.9154 56.6139 46.5309 56.6139H45.0813V73.2853C45.0813 75.0155 45.7686 76.6748 46.992 77.8982C48.2154 79.1216 49.8747 79.8089 51.6049 79.8089C53.335 79.8089 54.9943 79.1216 56.2177 77.8982C57.4411 76.6748 58.1285 75.0155 58.1285 73.2853V56.6139H56.6788C56.2943 56.6139 55.9256 56.4611 55.6537 56.1893C55.3818 55.9174 55.2291 55.5487 55.2291 55.1642C55.2291 54.7797 55.3818 54.411 55.6537 54.1391C55.9256 53.8672 56.2943 53.7145 56.6788 53.7145H59.5781C59.9626 53.7145 60.3314 53.8672 60.6032 54.1391C60.8751 54.411 61.0278 54.7797 61.0278 55.1642V73.2853C61.024 75.7832 60.03 78.1778 58.2637 79.9441C56.4974 81.7104 54.1028 82.7044 51.6049 82.7083Z" fill="url(#paint4_linear_2_21)"/>
<path d="M62.1151 95.7555C58.9443 95.7516 55.9045 94.4903 53.6624 92.2482C51.4203 90.0061 50.159 86.9663 50.1552 83.7955V81.2586C50.1552 80.8741 50.3079 80.5054 50.5798 80.2335C50.8516 79.9616 51.2204 79.8089 51.6049 79.8089C51.9893 79.8089 52.3581 79.9616 52.6299 80.2335C52.9018 80.5054 53.0545 80.8741 53.0545 81.2586V83.7955C53.0545 86.1985 54.0091 88.5031 55.7083 90.2023C57.4075 91.9015 59.7121 92.8561 62.1151 92.8561C64.5181 92.8561 66.8227 91.9015 68.5219 90.2023C70.2211 88.5031 71.1756 86.1985 71.1756 83.7955V69.6611C71.1756 69.2766 71.3284 68.9079 71.6002 68.636C71.8721 68.3641 72.2409 68.2114 72.6253 68.2114C73.0098 68.2114 73.3786 68.3641 73.6504 68.636C73.9223 68.9079 74.075 69.2766 74.075 69.6611V83.7955C74.0712 86.9663 72.8099 90.0061 70.5678 92.2482C68.3257 94.4903 65.2859 95.7516 62.1151 95.7555Z" fill="url(#paint5_linear_2_21)"/>
<path d="M72.6253 37.1881C72.4952 37.2021 72.364 37.2021 72.2339 37.1881L68.0443 36.0428C67.6733 35.9409 67.358 35.6958 67.1676 35.3614C66.9773 35.027 66.9277 34.6307 67.0295 34.2597C67.1314 33.8887 67.3765 33.5733 67.7109 33.383C68.0453 33.1927 68.4416 33.143 68.8127 33.2449L73.0023 34.3902C73.3867 34.4402 73.7356 34.6408 73.9721 34.948C74.2087 35.2552 74.3135 35.6438 74.2635 36.0283C74.2135 36.4128 74.0128 36.7617 73.7056 36.9982C73.3984 37.2347 73.0098 37.3395 72.6253 37.2895V37.1881Z" fill="url(#paint6_linear_2_21)"/>
<path d="M69.8709 38.7102C69.7461 38.7303 69.6188 38.7303 69.494 38.7102C69.3102 38.6599 69.1381 38.5738 68.9876 38.457C68.8371 38.3401 68.7112 38.1947 68.6169 38.0291C68.5227 37.8635 68.462 37.6809 68.4384 37.4918C68.4147 37.3027 68.4286 37.1108 68.4792 36.9271L69.6245 32.7375C69.7263 32.3665 69.9714 32.0511 70.3058 31.8608C70.6402 31.6705 71.0365 31.6208 71.4076 31.7227C71.7786 31.8246 72.0939 32.0697 72.2843 32.4041C72.4746 32.7385 72.5242 33.1348 72.4224 33.5059L71.2771 37.6955C71.1834 37.9936 70.9959 38.2534 70.7425 38.4363C70.4891 38.6191 70.1834 38.7152 69.8709 38.7102Z" fill="url(#paint7_linear_2_21)"/>
<path d="M25.9164 88.6375C24.5066 88.6368 23.1277 88.225 21.9484 87.4525C20.7691 86.6801 19.8407 85.5805 19.2768 84.2884L0.952739 43.3202C0.170184 41.5668 0.115348 39.5745 0.800271 37.7806C1.48519 35.9868 2.8539 34.538 4.60595 33.7523L33.8462 20.7051C34.1677 20.6361 34.5032 20.6785 34.7975 20.8253C35.0918 20.9722 35.3275 21.2147 35.4657 21.5131C35.604 21.8116 35.6366 22.1481 35.5584 22.4676C35.4801 22.787 35.2955 23.0704 35.0349 23.2711L5.7947 36.3182C5.26596 36.5503 4.78873 36.8854 4.39085 37.3039C3.99297 37.7224 3.68242 38.2159 3.4773 38.7557C3.27219 39.2955 3.17662 39.8707 3.19617 40.4478C3.21572 41.0249 3.35 41.5923 3.59117 42.117L21.8862 83.1722C22.1183 83.7009 22.4534 84.1781 22.8719 84.576C23.2904 84.9739 23.7839 85.2845 24.3237 85.4896C24.8635 85.6947 25.4387 85.7903 26.0158 85.7707C26.5929 85.7512 27.1603 85.6169 27.685 85.3757L39.8044 79.9684C40.1495 79.8378 40.5315 79.8438 40.8724 79.9851C41.2132 80.1264 41.4874 80.3923 41.639 80.7288C41.7906 81.0652 41.8082 81.4468 41.6882 81.7958C41.5681 82.1447 41.3196 82.4348 40.9931 82.6068L28.8737 88.0141C27.9444 88.4325 26.9356 88.6452 25.9164 88.6375Z" fill="url(#paint8_linear_2_21)"/>
<path d="M18.6099 41.6531C18.327 41.6541 18.05 41.5723 17.813 41.4177C17.576 41.2631 17.3894 41.0426 17.2762 40.7833C17.199 40.6091 17.1569 40.4214 17.1522 40.231C17.1476 40.0405 17.1806 39.851 17.2492 39.6732C17.3179 39.4955 17.4209 39.3331 17.5524 39.1952C17.6839 39.0573 17.8413 38.9467 18.0156 38.8697L29.9175 33.5493C30.0917 33.4713 30.2796 33.4283 30.4704 33.4229C30.6612 33.4174 30.8512 33.4496 31.0296 33.5176C31.2079 33.5856 31.3711 33.688 31.5099 33.8191C31.6487 33.9501 31.7603 34.1072 31.8383 34.2814C31.9164 34.4556 31.9594 34.6435 31.9648 34.8343C31.9703 35.0251 31.9381 35.2151 31.8701 35.3935C31.8021 35.5718 31.6997 35.7351 31.5686 35.8739C31.4376 36.0126 31.2804 36.1242 31.1063 36.2023L19.1898 41.5226C19.0076 41.6057 18.8102 41.6501 18.6099 41.6531Z" fill="url(#paint9_linear_2_21)"/>
<path d="M18.175 51.366C17.8407 51.3748 17.5137 51.2677 17.2493 51.0629C16.9849 50.8581 16.7995 50.5681 16.7244 50.2423C16.6494 49.9164 16.6893 49.5746 16.8374 49.2747C16.9855 48.9749 17.2327 48.7355 17.5372 48.5971L27.3661 44.2481C27.7112 44.1175 28.0931 44.1235 28.434 44.2648C28.7749 44.4061 29.0491 44.672 29.2007 45.0085C29.3523 45.3449 29.3698 45.7265 29.2498 46.0754C29.1298 46.4244 28.8813 46.7145 28.5548 46.8865L18.7259 51.2356C18.5526 51.3148 18.3654 51.3592 18.175 51.366Z" fill="url(#paint10_linear_2_21)"/>
<path d="M21.7268 59.2958C21.3963 59.2943 21.0762 59.1799 20.8196 58.9716C20.5631 58.7633 20.3854 58.4735 20.316 58.1504C20.2466 57.8273 20.2898 57.4901 20.4383 57.1949C20.5867 56.8996 20.8316 56.6639 21.1324 56.5269L24.4522 55.0772C24.7973 54.9467 25.1793 54.9526 25.5202 55.0939C25.861 55.2352 26.1352 55.5012 26.2868 55.8376C26.4384 56.1741 26.456 56.5557 26.336 56.9046C26.2159 57.2536 25.9674 57.5436 25.6409 57.7157L22.3211 59.1653C22.1345 59.2504 21.9319 59.2949 21.7268 59.2958Z" fill="url(#paint11_linear_2_21)"/>
<path d="M37.8328 75.1264C37.7081 75.1483 37.5806 75.1483 37.4559 75.1264L26.7282 72.227C24.8761 71.7216 23.3002 70.5021 22.3462 68.836C21.3922 67.17 21.1382 65.1936 21.6398 63.3404L33.4838 19.8933C33.7339 18.9746 34.1626 18.1142 34.7454 17.3613C35.3282 16.6084 36.0536 15.9776 36.8802 15.5051C37.7067 15.0326 38.6183 14.7275 39.5628 14.6074C40.5074 14.4872 41.4663 14.5543 42.3848 14.8049L75.9741 23.9959C76.8874 24.2411 77.7425 24.6662 78.4893 25.2462C79.2361 25.8262 79.8596 26.5495 80.3232 27.3737C80.798 28.2001 81.1051 29.1121 81.227 30.0573C81.3489 31.0026 81.2831 31.9626 81.0335 32.8825L76.38 49.9598C76.2509 50.2941 76.0025 50.5688 75.6828 50.7307C75.3631 50.8927 74.9947 50.9304 74.6487 50.8368C74.3028 50.7431 74.0038 50.5246 73.8095 50.2234C73.6153 49.9222 73.5394 49.5598 73.5966 49.206L78.2791 32.1286C78.4297 31.5771 78.4701 31.0013 78.398 30.4341C78.3259 29.867 78.1426 29.3196 77.8587 28.8234C77.5776 28.3254 77.1991 27.889 76.7458 27.5403C76.2925 27.1917 75.7737 26.9378 75.2203 26.7938L41.6745 17.5883C40.5655 17.3002 39.3877 17.4615 38.3969 18.0369C37.4061 18.6124 36.6824 19.5556 36.3831 20.6616L24.4522 63.9928C24.3004 64.5439 24.2588 65.1196 24.3297 65.6868C24.4006 66.2541 24.5826 66.8018 24.8653 67.2986C25.1481 67.7955 25.526 68.2317 25.9775 68.5823C26.429 68.933 26.9452 69.1912 27.4965 69.3421L38.2242 72.2415C38.4104 72.2872 38.5856 72.3694 38.7398 72.4833C38.8939 72.5972 39.024 72.7405 39.1224 72.905C39.2208 73.0695 39.2857 73.2518 39.3131 73.4415C39.3406 73.6312 39.3302 73.8245 39.2825 74.0101C39.206 74.3345 39.02 74.6226 38.756 74.8259C38.492 75.0292 38.1659 75.1353 37.8328 75.1264Z" fill="url(#paint12_linear_2_21)"/>
<path d="M63.1444 33.9407C63.0143 33.955 62.883 33.955 62.7529 33.9407L50.1697 30.5195C49.9859 30.4692 49.8138 30.3831 49.6633 30.2662C49.5128 30.1493 49.3868 30.0039 49.2926 29.8383C49.1983 29.6727 49.1377 29.4901 49.114 29.301C49.0904 29.112 49.1043 28.9201 49.1549 28.7364C49.1945 28.5496 49.2705 28.3725 49.3788 28.2152C49.487 28.0579 49.6252 27.9235 49.7855 27.8198C49.9458 27.7161 50.125 27.6451 50.3128 27.6108C50.5007 27.5765 50.6934 27.5797 50.88 27.6201L63.4633 31.0704C63.6537 31.0951 63.8373 31.1571 64.0037 31.2528C64.1701 31.3485 64.3161 31.4761 64.4332 31.6282C64.5503 31.7803 64.6363 31.954 64.6863 32.1394C64.7363 32.3247 64.7493 32.5181 64.7245 32.7085C64.6998 32.8989 64.6378 33.0825 64.5421 33.2489C64.4463 33.4153 64.3188 33.5613 64.1667 33.6784C64.0145 33.7955 63.8409 33.8815 63.6555 33.9315C63.4701 33.9815 63.2768 33.9945 63.0864 33.9697L63.1444 33.9407Z" fill="url(#paint13_linear_2_21)"/>
<path d="M65.0435 43.4797C64.9134 43.494 64.7821 43.494 64.652 43.4797L43.6316 37.7679C43.2471 37.6603 42.9211 37.4043 42.7254 37.0563C42.5296 36.7083 42.4801 36.2968 42.5878 35.9123C42.6954 35.5279 42.9514 35.2019 43.2994 35.0061C43.6474 34.8104 44.0589 34.7609 44.4434 34.8686L65.3769 40.6673C65.7614 40.7173 66.1102 40.918 66.3468 41.2252C66.5833 41.5324 66.6881 41.921 66.6381 42.3055C66.5881 42.6899 66.3875 43.0388 66.0803 43.2754C65.773 43.5119 65.3845 43.6167 65 43.5667L65.0435 43.4797Z" fill="url(#paint14_linear_2_21)"/>
<path d="M58.8678 50.8151C58.7431 50.8371 58.6155 50.8371 58.4909 50.8151L41.3845 46.1326C41.198 46.0803 41.0235 45.9917 40.8712 45.8719C40.7189 45.7522 40.5916 45.6036 40.4967 45.4346C40.4018 45.2657 40.3411 45.0797 40.3181 44.8873C40.2951 44.6949 40.3102 44.4998 40.3625 44.3133C40.4149 44.1267 40.5034 43.9523 40.6232 43.8C40.743 43.6476 40.8916 43.5204 41.0605 43.4255C41.2295 43.3306 41.4154 43.2699 41.6078 43.2468C41.8002 43.2238 41.9953 43.2389 42.1819 43.2912L59.2447 47.9158C59.6126 48.0175 59.9256 48.2604 60.1156 48.5915C60.3056 48.9226 60.3573 49.3153 60.2595 49.6844C60.188 50.0016 60.0118 50.2857 59.7594 50.4907C59.507 50.6958 59.193 50.8101 58.8678 50.8151Z" fill="url(#paint15_linear_2_21)"/>
<defs>
<linearGradient id="paint0_linear_2_21" x1="510.537" y1="91" x2="96.9197" y2="40.9481" gradientUnits="userSpaceOnUse">
<stop stop-color="#0D0D0D"/>
<stop stop-color="#62FF78"/>
<stop offset="1" stop-color="#FCF6AF"/>
</linearGradient>
<linearGradient id="paint1_linear_2_21" x1="81.7761" y1="67.4802" x2="63.7708" y2="66.8616" gradientUnits="userSpaceOnUse">
<stop stop-color="#0D0D0D"/>
<stop stop-color="#62FF78"/>
<stop offset="1" stop-color="#FCF6AF"/>
</linearGradient>
<linearGradient id="paint2_linear_2_21" x1="76.4381" y1="63.2572" x2="68.9821" y2="62.6167" gradientUnits="userSpaceOnUse">
<stop stop-color="#0D0D0D"/>
<stop stop-color="#62FF78"/>
<stop offset="1" stop-color="#FCF6AF"/>
</linearGradient>
<linearGradient id="paint3_linear_2_21" x1="74.1505" y1="64.5241" x2="71.1466" y2="64.4828" gradientUnits="userSpaceOnUse">
<stop stop-color="#0D0D0D"/>
<stop stop-color="#62FF78"/>
<stop offset="1" stop-color="#FCF6AF"/>
</linearGradient>
<linearGradient id="paint4_linear_2_21" x1="61.5181" y1="76.6574" x2="41.9991" y2="76.2214" gradientUnits="userSpaceOnUse">
<stop stop-color="#0D0D0D"/>
<stop stop-color="#62FF78"/>
<stop offset="1" stop-color="#FCF6AF"/>
</linearGradient>
<linearGradient id="paint5_linear_2_21" x1="74.6973" y1="90.0071" x2="49.9329" y2="89.2682" gradientUnits="userSpaceOnUse">
<stop stop-color="#0D0D0D"/>
<stop stop-color="#62FF78"/>
<stop offset="1" stop-color="#FCF6AF"/>
</linearGradient>
<linearGradient id="paint6_linear_2_21" x1="74.4656" y1="36.4443" x2="66.9313" y2="35.9845" gradientUnits="userSpaceOnUse">
<stop stop-color="#0D0D0D"/>
<stop stop-color="#62FF78"/>
<stop offset="1" stop-color="#FCF6AF"/>
</linearGradient>
<linearGradient id="paint7_linear_2_21" x1="72.5794" y1="37.2531" x2="68.3875" y2="37.1704" gradientUnits="userSpaceOnUse">
<stop stop-color="#0D0D0D"/>
<stop stop-color="#62FF78"/>
<stop offset="1" stop-color="#FCF6AF"/>
</linearGradient>
<linearGradient id="paint8_linear_2_21" x1="42.8452" y1="74.4537" x2="-0.0810465" y2="73.5543" gradientUnits="userSpaceOnUse">
<stop stop-color="#0D0D0D"/>
<stop stop-color="#62FF78"/>
<stop offset="1" stop-color="#FCF6AF"/>
</linearGradient>
<linearGradient id="paint9_linear_2_21" x1="32.3508" y1="39.9354" x2="17.059" y2="38.9897" gradientUnits="userSpaceOnUse">
<stop stop-color="#0D0D0D"/>
<stop stop-color="#62FF78"/>
<stop offset="1" stop-color="#FCF6AF"/>
</linearGradient>
<linearGradient id="paint10_linear_2_21" x1="29.6575" y1="49.8614" x2="16.6056" y2="49.0753" gradientUnits="userSpaceOnUse">
<stop stop-color="#0D0D0D"/>
<stop stop-color="#62FF78"/>
<stop offset="1" stop-color="#FCF6AF"/>
</linearGradient>
<linearGradient id="paint11_linear_2_21" x1="26.5743" y1="58.3958" x2="20.2362" y2="58.0862" gradientUnits="userSpaceOnUse">
<stop stop-color="#0D0D0D"/>
<stop stop-color="#62FF78"/>
<stop offset="1" stop-color="#FCF6AF"/>
</linearGradient>
<linearGradient id="paint12_linear_2_21" x1="82.8449" y1="62.4973" x2="20.8477" y2="60.3914" gradientUnits="userSpaceOnUse">
<stop stop-color="#0D0D0D"/>
<stop stop-color="#62FF78"/>
<stop offset="1" stop-color="#FCF6AF"/>
</linearGradient>
<linearGradient id="paint13_linear_2_21" x1="65.1435" y1="32.6474" x2="49.0567" y2="31.296" gradientUnits="userSpaceOnUse">
<stop stop-color="#0D0D0D"/>
<stop stop-color="#62FF78"/>
<stop offset="1" stop-color="#FCF6AF"/>
</linearGradient>
<linearGradient id="paint14_linear_2_21" x1="67.2778" y1="41.7495" x2="42.507" y2="39.4077" gradientUnits="userSpaceOnUse">
<stop stop-color="#0D0D0D"/>
<stop stop-color="#62FF78"/>
<stop offset="1" stop-color="#FCF6AF"/>
</linearGradient>
<linearGradient id="paint15_linear_2_21" x1="60.8282" y1="49.2465" x2="40.2716" y2="47.3865" gradientUnits="userSpaceOnUse">
<stop stop-color="#0D0D0D"/>
<stop stop-color="#62FF78"/>
<stop offset="1" stop-color="#FCF6AF"/>
</linearGradient>
</defs>
</svg>
